<?xml version="1.0" standalone="no"?>
<!DOCTYPE svg PUBLIC "-//W3C//DTD SVG 20010904//EN"
 "http://www.w3.org/TR/2001/REC-SVG-20010904/DTD/svg10.dtd">
<svg version="1.0" xmlns="http://www.w3.org/2000/svg"
 width="1280.000000pt" height="1280.000000pt" viewBox="0 0 1280.000000 1280.000000"
 preserveAspectRatio="xMidYMid meet">
<g transform="translate(0.000000,1280.000000) scale(0.100000,-0.100000)"
fill="#000000" stroke="none">
<path d="M555 12790 c-16 -5 -64 -16 -105 -26 -239 -53 -374 -208 -432 -496
-10 -51 -13 -1211 -13 -5878 l0 -5815 22 -100 c55 -246 183 -383 423 -451 63
-18 248 -19 5945 -19 l5880 0 80 23 c158 44 257 111 328 220 55 85 62 101 92
224 l25 101 0 5758 c0 3814 -3 5773 -10 5801 -6 24 -19 81 -30 128 -30 131
-89 240 -174 325 -103 102 -209 154 -396 192 -80 16 -414 17 -5845 19 -3168 1
-5773 -2 -5790 -6z m11120 -783 c184 -54 277 -145 332 -322 17 -58 18 -242 18
-5310 0 -4953 -1 -5254 -17 -5318 -40 -155 -89 -210 -234 -259 l-69 -23 -5260
-3 c-3696 -2 -5285 1 -5343 8 -167 22 -245 67 -280 163 -50 134 -47 -175 -47
5427 0 4985 1 5238 18 5300 58 214 197 327 432 350 39 4 2392 7 5230 6 4917
-1 5163 -2 5220 -19z"/>
<path d="M9479 10829 c-31 -4 -101 -28 -155 -52 -55 -24 -151 -61 -214 -82
-63 -21 -180 -71 -260 -111 -80 -40 -157 -75 -171 -79 -42 -10 -562 -544 -592
-607 -28 -59 -22 -126 17 -202 40 -77 125 -199 213 -308 35 -42 63 -81 63 -86
0 -12 -114 -102 -178 -142 -35 -21 -61 -47 -79 -78 -49 -89 -73 -119 -111
-139 -38 -21 -221 -71 -607 -167 -410 -101 -358 -96 -870 -92 -247 3 -482 9
-521 15 -40 5 -121 26 -180 45 -256 81 -399 109 -710 136 -283 26 -560 28
-660 6 -147 -32 -194 -59 -414 -243 -187 -157 -380 -355 -455 -468 -55 -82
-107 -194 -247 -530 -139 -333 -190 -500 -213 -691 -29 -237 -77 -338 -260
-544 -222 -250 -281 -311 -364 -381 -114 -95 -239 -162 -364 -194 -184 -46
-442 -67 -587 -46 -30 5 -57 7 -59 5 -7 -6 170 -116 234 -145 36 -16 105 -39
152 -50 48 -11 125 -37 172 -57 84 -35 89 -35 206 -34 66 1 134 -2 151 -7 25
-7 44 -3 99 21 l68 30 17 -22 17 -23 95 62 c96 62 128 73 128 46 0 -8 3 -15 6
-15 12 0 117 92 221 194 57 55 106 97 109 93 4 -4 19 -167 34 -362 27 -343 27
-362 13 -503 -17 -170 -12 -303 17 -477 11 -66 25 -185 31 -265 6 -80 19 -182
30 -228 25 -109 24 -173 -6 -385 -14 -97 -31 -249 -39 -339 -17 -185 -25 -215
-90 -316 -140 -217 -162 -361 -70 -458 29 -31 38 -36 64 -31 27 6 32 3 50 -33
28 -55 50 -64 113 -49 29 7 67 18 85 26 30 12 35 11 70 -12 80 -53 129 -50
209 11 l34 26 35 -31 c19 -17 42 -31 51 -31 26 0 91 76 99 115 9 52 2 72 -101
285 -52 107 -101 222 -110 255 -25 104 -38 429 -25 652 18 325 40 492 84 627
14 43 26 102 26 130 0 80 64 293 126 416 12 26 54 84 93 130 125 150 178 281
201 497 19 175 56 283 122 353 66 70 170 150 193 150 30 0 133 -110 207 -222
77 -116 234 -387 268 -462 113 -248 53 -581 -137 -772 -73 -74 -81 -101 -65
-213 6 -42 14 -224 17 -406 6 -322 5 -333 -19 -477 -47 -270 -37 -309 86 -321
36 -3 106 -17 154 -31 71 -19 113 -24 209 -25 108 0 129 3 205 29 47 16 91 37
98 47 9 13 11 34 6 73 -6 51 -11 60 -70 118 -160 159 -280 373 -302 539 -4 32
-5 112 -2 179 5 105 9 127 34 179 37 75 132 200 281 370 140 160 185 219 249
325 88 144 128 270 131 405 1 95 -15 92 180 42 298 -76 432 -92 695 -83 102 3
201 9 220 12 32 4 43 -1 118 -63 78 -63 83 -70 77 -98 -21 -102 -17 -149 25
-330 104 -448 134 -562 195 -740 35 -104 114 -352 175 -550 114 -370 157 -553
204 -856 32 -204 38 -223 114 -379 34 -69 80 -181 103 -250 47 -142 65 -175
116 -221 101 -88 233 -103 375 -42 33 14 41 14 84 -1 73 -25 136 -21 173 9 16
14 33 35 36 46 4 12 22 27 41 35 40 17 43 40 17 115 -10 26 -15 50 -12 53 3 3
39 -6 80 -21 64 -22 85 -25 159 -20 98 6 163 27 202 64 22 21 33 25 62 20 54
-9 105 3 121 27 12 18 12 35 4 91 -6 39 -17 82 -25 96 -22 44 -77 84 -158 114
-60 23 -100 48 -171 107 -159 132 -205 196 -231 317 -16 78 -18 326 -4 516 5
72 16 234 25 360 41 628 67 840 131 1096 44 175 75 230 224 404 123 143 176
217 200 283 12 31 43 95 69 142 92 163 183 353 216 454 48 143 63 231 74 412
6 108 14 171 26 198 9 21 51 88 94 150 125 177 134 199 156 411 30 287 51 392
94 480 70 141 89 272 54 381 -9 30 -14 56 -11 59 3 3 26 1 51 -5 64 -17 101 4
132 73 69 158 87 217 76 249 -23 64 -14 101 37 168 133 175 156 222 187 390
40 213 47 245 61 272 16 32 26 35 44 13 20 -24 25 -200 7 -257 -12 -38 -12
-48 -2 -48 15 0 176 113 260 182 119 99 257 275 296 379 16 43 18 57 8 92 -18
67 -46 113 -103 171 -47 47 -103 125 -327 458 -70 105 -96 127 -204 178 -55
26 -140 77 -190 112 -49 36 -100 70 -111 76 -44 23 -114 34 -279 42 -118 5
-207 16 -290 34 -66 14 -147 28 -180 31 -33 3 -76 7 -95 9 -19 2 -60 0 -91 -5z
m-1226 -6560 c10 -41 40 -222 67 -404 27 -181 53 -359 59 -395 17 -108 79
-765 86 -918 l7 -143 56 -65 c30 -35 52 -68 48 -71 -11 -11 -94 78 -155 167
-109 159 -149 244 -171 366 -11 60 -35 155 -54 211 -91 270 -94 507 -15 1143
11 91 22 171 25 178 10 31 30 1 47 -69z m471 -2125 c7 -18 1 -18 -29 2 -14 9
-25 23 -25 30 0 12 4 12 24 -1 13 -9 27 -23 30 -31z"/>
</g>
</svg>
